<?xml version="1.0" encoding="UTF-8"?>
<svg width="100pt" height="100pt" version="1.1" viewBox="0 0 100 100" xmlns="http://www.w3.org/2000/svg">
 <path d="m50.262 83.488c8.6484 0 17.289-3.2891 23.879-9.8711 4.8789-4.8789 8.1094-11.02 9.3398-17.75 0.089843-0.48047-0.070313-0.98047-0.42188-1.3281-0.35156-0.35156-0.85156-0.5-1.3281-0.41016-9.9688 1.8398-20.199-1.3281-27.359-8.4883s-10.328-17.391-8.4883-27.359c0.089844-0.48047-0.058593-0.98047-0.41016-1.3281-0.35156-0.35156-0.85156-0.51172-1.3281-0.42188-6.7305 1.2305-12.859 4.4609-17.75 9.3398-13.172 13.172-13.172 34.59 0 47.75 6.5742 6.5781 15.215 9.8672 23.867 9.8672zm-21.75-55.5c3.9414-3.9414 8.7812-6.6992 14.09-8.0586-1.1992 10.23 2.3203 20.488 9.6484 27.82 7.3281 7.3281 17.59 10.859 27.82 9.6484-1.3516 5.3086-4.1094 10.148-8.0586 14.09-12 11.988-31.512 12-43.512 0-11.988-11.988-11.988-31.508 0.011719-43.5z"/>
</svg>
