<?xml version="1.0" encoding="UTF-8"?>
<svg width="100pt" height="100pt" version="1.1" viewBox="0 0 100 100" xmlns="http://www.w3.org/2000/svg">
 <g>
  <path d="m50 68.57c10.238 0 18.57-8.3281 18.57-18.57 0-10.238-8.332-18.57-18.57-18.57s-18.57 8.332-18.57 18.57 8.332 18.57 18.57 18.57zm0-34.141c8.5781 0 15.57 6.9805 15.57 15.57s-6.9922 15.57-15.57 15.57-15.57-6.9922-15.57-15.57 6.9922-15.57 15.57-15.57z"/>
  <path d="m50 25.898c0.82812 0 1.5-0.67188 1.5-1.5v-6.3984c0-0.82812-0.67188-1.5-1.5-1.5s-1.5 0.67188-1.5 1.5v6.3984c0 0.83203 0.67188 1.5 1.5 1.5z"/>
  <path d="m48.5 75.602v6.3984c0 0.82812 0.67188 1.5 1.5 1.5s1.5-0.67188 1.5-1.5v-6.3984c0-0.82812-0.67188-1.5-1.5-1.5s-1.5 0.66797-1.5 1.5z"/>
  <path d="m21.539 35.301 5.5391 3.1992c0.23828 0.14062 0.48828 0.19922 0.75 0.19922 0.51953 0 1.0195-0.26953 1.3008-0.75 0.41016-0.71875 0.17188-1.6289-0.55078-2.0508l-5.5391-3.1992c-0.71875-0.42188-1.6289-0.17188-2.0508 0.55078-0.41797 0.71875-0.16797 1.6289 0.55078 2.0508z"/>
  <path d="m71.422 64.102 5.5391 3.1992c0.23828 0.14062 0.48828 0.19922 0.75 0.19922 0.51953 0 1.0195-0.26953 1.3008-0.75 0.41016-0.71875 0.17188-1.6289-0.55078-2.0508l-5.5391-3.1992c-0.71875-0.41016-1.6289-0.17188-2.0508 0.55078-0.41016 0.71875-0.17188 1.6289 0.55078 2.0508z"/>
  <path d="m22.289 67.5c0.25 0 0.51172-0.058594 0.75-0.19922l5.5391-3.1992c0.71875-0.41016 0.96094-1.3281 0.55078-2.0508-0.41016-0.71875-1.3281-0.96094-2.0508-0.55078l-5.5391 3.1992c-0.71875 0.41016-0.96094 1.3281-0.55078 2.0508 0.28125 0.48047 0.78125 0.75 1.3008 0.75z"/>
  <path d="m72.172 38.699c0.25 0 0.51172-0.058594 0.75-0.19922l5.5391-3.1992c0.71875-0.41016 0.96094-1.3281 0.55078-2.0508-0.41016-0.71875-1.3281-0.96094-2.0508-0.55078l-5.5391 3.1992c-0.71875 0.41016-0.96094 1.3281-0.55078 2.0508 0.27734 0.48047 0.77734 0.75 1.3008 0.75z"/>
 </g>
</svg>
